# xmcd
#
# Track frame offsets:
#	150
#	19191
#	40426
#	58105
#	80259
#	96339
#	119855
#	146328
#	168817
#	184145
#	207307
#
# Disc length: 3242 seconds
# Revision: 0
# Processed by: cddbd v1.5.2PL0 Copyright (c) Steve Scherf et al.
# Submitted via: dBpowerAMP V12.0
#
DISCID=9b0ca80b
DTITLE=Nick Cave and The Bad Seeds - Dig!! Lazarus Dig!!
DYEAR=2008
DGENRE=
TTITLE0=Dig, Lazarus, Dig!!!
TTITLE1=Today's Lesson
TTITLE2=Moonland
TTITLE3=Night Of The Lotus Eaters
TTITLE4=Albert Goes West
TTITLE5=We Call Upon The Author
TTITLE6=Hold On To Yourself
TTITLE7=Lie Down Here (& Be My Girl)
TTITLE8=Jesus Of The Moon
TTITLE9=Midnight Man
TTITLE10=More News From Nowhere
EXTD=
EXTT0=
EXTT1=
EXTT2=
EXTT3=
EXTT4=
EXTT5=
EXTT6=
EXTT7=
EXTT8=
EXTT9=
EXTT10=
PLAYORDER=
